<svg width="30" height="30" viewBox="0 0 30 30" fill="none" xmlns="http://www.w3.org/2000/svg">
<circle cx="15" cy="15" r="15" fill="white"/>
<path fill-rule="evenodd" clip-rule="evenodd" d="M15 9C15.4142 9 15.75 9.33579 15.75 9.75V20.25C15.75 20.6642 15.4142 21 15 21C14.5858 21 14.25 20.6642 14.25 20.25V9.75C14.25 9.33579 14.5858 9 15 9Z" fill="black"/>
<path fill-rule="evenodd" clip-rule="evenodd" d="M9 15C9 14.5858 9.33579 14.25 9.75 14.25H20.25C20.6642 14.25 21 14.5858 21 15C21 15.4142 20.6642 15.75 20.25 15.75H9.75C9.33579 15.75 9 15.4142 9 15Z" fill="black"/>
</svg>
