<svg width="12" height="12" viewBox="0 0 12 12" fill="none" xmlns="http://www.w3.org/2000/svg">
<path fill-rule="evenodd" clip-rule="evenodd" d="M1.8 1.2C1.64087 1.2 1.48826 1.26321 1.37574 1.37574C1.26321 1.48826 1.2 1.64087 1.2 1.8V10.2C1.2 10.3591 1.26321 10.5117 1.37574 10.6243C1.48826 10.7368 1.64087 10.8 1.8 10.8H4.2C4.53137 10.8 4.8 11.0686 4.8 11.4C4.8 11.7314 4.53137 12 4.2 12H1.8C1.32261 12 0.864773 11.8104 0.527208 11.4728C0.189642 11.1352 0 10.6774 0 10.2V1.8C0 1.32261 0.189642 0.864773 0.527208 0.527208C0.864773 0.189642 1.32261 0 1.8 0H4.2C4.53137 0 4.8 0.268629 4.8 0.6C4.8 0.931371 4.53137 1.2 4.2 1.2H1.8Z" fill="black"/>
<path fill-rule="evenodd" clip-rule="evenodd" d="M7.97554 2.57582C8.20986 2.34151 8.58975 2.34151 8.82407 2.57582L11.8241 5.57582C12.0584 5.81014 12.0584 6.19003 11.8241 6.42435L8.82407 9.42435C8.58975 9.65866 8.20986 9.65866 7.97554 9.42435C7.74123 9.19003 7.74123 8.81014 7.97554 8.57582C9.39808 7.15328 9.39808 4.84689 7.97554 3.42435C7.74123 3.19003 7.74123 2.81014 7.97554 2.57582Z" fill="black"/>
<path fill-rule="evenodd" clip-rule="evenodd" d="M3.59961 6.00009C3.59961 5.66871 3.86824 5.40009 4.19961 5.40009H11.3996C11.731 5.40009 11.9996 5.66871 11.9996 6.00009C11.9996 6.33146 11.731 6.60009 11.3996 6.60009H4.19961C3.86824 6.60009 3.59961 6.33146 3.59961 6.00009Z" fill="black"/>
</svg>
