<?xml version="1.0" encoding="UTF-8"?>
<svg id="Layer_1" data-name="Layer 1" xmlns="http://www.w3.org/2000/svg" version="1.1" viewBox="0 0 1000 198">
  <defs>
    <style>
      .cls-1 {
        fill: #ff584a;
      }

      .cls-1, .cls-2 {
        fill-rule: evenodd;
        stroke-width: 0px;
      }

      .cls-2 {
        fill: #fff;
      }
    </style>
  </defs>
  <g>
    <path class="cls-2" d="M974.8,150.6c.6,6.9,6.1,15.7,15.7,15.7h5.6c2.2,0,3.9-1.8,3.9-3.9V39.4h0c-.1-2.1-1.8-3.7-3.9-3.7h-17.3c-2.1,0-3.8,1.7-3.9,3.7h0v10c-10.6-13.1-27.3-18.5-44.1-18.5-38.1,0-69.1,30.9-69.1,69.1s30.9,69.1,69.1,69.1h0c16.8,0,35.1-6.5,44.1-18.5h0ZM930.7,144.9c-24.3,0-43.9-20.1-43.9-44.9s19.7-44.9,43.9-44.9,43.9,20.1,43.9,44.9-19.7,44.9-43.9,44.9h0Z"/>
    <path class="cls-2" d="M839.7,154.8v-63.6s0,0,0,0c0-35.9-22.6-60-58.6-60s-31.3,10-36.3,18.5c-1.1-6.7-4.6-13.7-15.6-13.7h-5.6c-2.2,0-3.9,1.8-3.9,3.9v111h0v11.9h0c.1,2.1,1.8,3.7,3.9,3.7h17.3c.3,0,.5,0,.8,0,.1,0,.2,0,.3,0,.1,0,.3,0,.4-.1.2,0,.3-.1.4-.2,0,0,.1,0,.2-.1.2-.1.3-.2.5-.4,0,0,0,0,0,0,.2-.2.3-.4.5-.5h0c.4-.6.7-1.3.7-2.1h0v-72.6c0-19.3,15.6-34.9,34.8-34.9s34.8,15.6,34.8,34.9v60.7s0,0,0,0c0,0,0,.1,0,.2v11.8h0c.1,2.1,1.8,3.7,3.9,3.7h17.3c.3,0,.5,0,.8,0,.1,0,.2,0,.3,0,.1,0,.3,0,.4-.1.1,0,.3-.1.4-.2,0,0,.2,0,.2-.1.2-.1.3-.2.4-.4,0,0,0,0,.1,0,.2-.2.3-.3.4-.5,0,0,0,0,0,0,.4-.6.7-1.3.7-2.1,0,0,0,0,0,0h0v-8h0Z"/>
    <path class="cls-2" d="M659.4,150.6c.6,6.9,6.1,15.7,15.7,15.7h5.6c2.2,0,3.9-1.8,3.9-3.9V39.4h0c-.1-2.1-1.8-3.7-3.9-3.7h-17.3c-2.1,0-3.8,1.7-3.9,3.7h0v10c-10.6-13.1-27.3-18.5-44.1-18.5-38.1,0-69,30.9-69,69.1s30.9,69.1,69,69.1h0c16.8,0,35.1-6.5,44.1-18.5h0ZM615.3,144.9c-24.3,0-43.9-20.1-43.9-44.9s19.7-44.9,43.9-44.9,43.9,20.1,43.9,44.9-19.7,44.9-43.9,44.9Z"/>
    <path class="cls-2" d="M443.8,133c11.6,8,24.2,11.9,36.3,11.9s23.5-6,23.5-16.4-26-16.1-42.4-21.7c-16.4-5.6-30.4-17.1-30.4-35.7,0-28.5,25.4-40.3,49-40.3s30.5,5,40.5,12c3.5,2.6,1.4,5.6,1.4,5.6l-9.6,13.7c-1.1,1.5-3,2.9-5.7,1.2-2.7-1.7-12.2-8.4-26.6-8.4s-23.1,6.7-23.1,15,11.3,13,24.6,16.4c23.1,6.2,48.3,13.7,48.3,42s-23.5,40.6-49.4,40.6-36.4-5.6-50.4-15.9c-2.9-2.9-.9-5.6-.9-5.6l9.5-13.6c1.9-2.5,4.4-1.7,5.5-.9"/>
    <path class="cls-2" d="M377.2,150.6c.6,6.9,6.1,15.7,15.7,15.7h5.6c2.2,0,3.9-1.8,3.9-3.9V39.4h0c-.1-2.1-1.8-3.7-3.9-3.7h-17.3c-2.1,0-3.8,1.7-3.9,3.7h0v10c-10.6-13.1-27.3-18.5-44.1-18.5-38.1,0-69,30.9-69,69.1s30.9,69.1,69,69.1h0c16.8,0,35.1-6.5,44.1-18.5h0ZM333.1,144.9c-24.3,0-43.9-20.1-43.9-44.9s19.7-44.9,43.9-44.9,43.9,20.1,43.9,44.9-19.7,44.9-43.9,44.9Z"/>
  </g>
  <path class="cls-1" d="M167.2,104.7c-25.7,0-46.5,20.8-46.5,46.5s20.8,46.5,46.5,46.5,46.5-20.8,46.5-46.5-20.8-46.5-46.5-46.5ZM46.5,104.7C20.8,104.7,0,125.5,0,151.2s20.8,46.5,46.5,46.5,46.5-20.8,46.5-46.5-20.8-46.5-46.5-46.5ZM153.3,46.6c0,25.7-20.8,46.5-46.5,46.5s-46.5-20.8-46.5-46.5S81.2.1,106.8.1s46.5,20.8,46.5,46.5Z"/>
</svg>